<?xml version="1.0" encoding="utf-8"?>
<!-- Generator: Adobe Illustrator 27.7.0, SVG Export Plug-In . SVG Version: 6.00 Build 0)  -->
<svg version="1.1" id="Layer_1" xmlns="http://www.w3.org/2000/svg" xmlns:xlink="http://www.w3.org/1999/xlink" x="0px" y="0px"
     viewBox="0 0 32 32" style="enable-background:new 0 0 32 32;" xml:space="preserve">
<style type="text/css">
    .st0{fill:#FFFFFF;}
    .st1{fill:#023D5E;}
</style>
<circle class="st0" cx="16" cy="16" r="16"/>
<path class="st1" d="M13.1,25.4H9.4V6.6h8.8c1.5,0,2.9,0.6,4,1.7s2,2.8,2,4.3c0,1.4-0.3,2.6-1.2,3.7c-0.9,1.1-1.7,1.8-3.1,2.2
    l4.6,6.9h-4.3l-4.3-6.5c-0.2-0.3-0.5-0.5-0.8-0.5h-2V25.4z M13.1,15.1H18c1.4,0,2.5-1.1,2.5-2.5S19.4,10,18,10h-4.9V15.1z"/>
</svg>
