<?xml version="1.0" encoding="utf-8"?>
<!-- Generator: Adobe Illustrator 27.7.0, SVG Export Plug-In . SVG Version: 6.00 Build 0)  -->
<svg version="1.1" id="Layer_1" xmlns="http://www.w3.org/2000/svg" xmlns:xlink="http://www.w3.org/1999/xlink" x="0px" y="0px"
	 viewBox="0 0 378.97 100" style="enable-background:new 0 0 378.97 100;" xml:space="preserve">
<style type="text/css">
	.st0{fill:#55788E;}
	.st1{fill:#023D5E;}
	.st2{fill:#FF5722;}
</style>
<g>
	<path class="st0" d="M25,25v50h50L25,25z"/>
	<path class="st1" d="M75,25H25v50L75,25z"/>
	<path class="st2" d="M256.98,35c-7.46,0-14,6.04-14,13.49V65h6v-6h15.99v6h6v-16.5C270.97,41.04,264.43,35,256.98,35z M264.97,53
		h-15.99v-4.49c0-4.14,3.86-7.5,8-7.5c4.14,0,8,3.36,8,7.5L264.97,53L264.97,53z"/>
	<path class="st2" d="M339.96,35c-7.46,0-14,6.04-14,13.49V65h6v-6h15.99v6h6v-16.5C353.96,41.04,347.42,35,339.96,35z M347.96,53
		h-15.99v-4.49c0-4.14,3.86-7.5,8-7.5c4.14,0,8,3.36,8,7.5L347.96,53L347.96,53z"/>
	<path class="st1" d="M195.98,35c-8.28,0-15,6.71-15,15c0,8.28,6.71,15,15,15c8.28,0,15-6.71,15-15
		C210.99,41.71,204.26,35,195.98,35z M195.98,58.99c-4.96,0-9-4.03-9-9c0-4.96,4.03-9,9-9c4.96,0,9,4.03,9,9
		C204.98,54.97,200.95,58.99,195.98,58.99z"/>
	<path class="st1" d="M174.62,48.41c0.74-1.31,1.17-2.81,1.17-4.42c0-4.96-4.03-9-9-9h-11.79v30h14.8c4.96,0,9-4.03,9-9
		C178.78,52.81,177.12,50.02,174.62,48.41z M160.99,40.99h5.8c1.65,0,3,1.35,3,3c0,1.65-1.35,3-3,3h-5.8V40.99z M169.78,58.99h-8.8
		v-6h8.8c1.65,0,3,1.35,3,3C172.78,57.63,171.43,58.99,169.78,58.99z"/>
	<path class="st1" d="M136.49,35c-8.28,0-15,6.71-15,15c0,8.28,6.71,15,15,15c8.29,0,15-6.71,15-15
		C151.49,41.71,144.77,35,136.49,35z M136.49,58.99c-4.96,0-9-4.03-9-9c0-4.96,4.03-9,9-9c4.96,0,9,4.03,9,9
		C145.49,54.97,141.45,58.99,136.49,58.99z"/>
	<path class="st2" d="M289.94,47.06l0.03-0.06h-7c-1.65,0-3-1.35-3-3c0-1.65,1.35-3,3-3h10.99l4-6h-15c-4.96,0-9,4.03-9,9
		c0,4.65,3.52,8.47,8.03,8.94L281.97,53h7c1.65,0,3,1.35,3,3c0,1.65-1.35,3-3,3h-10.99l-4,6h15c4.96,0,9-4.03,9-9
		C297.97,51.35,294.45,47.53,289.94,47.06z"/>
	<path class="st2" d="M307.96,35c-4.96,0-9,4.03-9,9c0,4.65,3.52,8.47,8.03,8.94L306.96,53h7c1.65,0,3,1.35,3,3c0,1.65-1.35,3-3,3
		h-10.99l-4,6h15c4.96,0,9-4.03,9-9c0-4.65-3.52-8.47-8.03-8.94l0.03-0.06h-7c-1.65,0-3-1.35-3-3c0-1.65,1.35-3,3-3h10.99l4-6
		L307.96,35z"/>
	<path class="st2" d="M239.67,35L227.4,48.06l12.57,16.92h-7l-9.57-12.69l-2.43,2.9v9.78h-6V35h6v11.83L231.8,35L239.67,35
		L239.67,35z"/>
	<path class="st1" d="M101,65h-6V35h14.13c2.53,0,4.69,0.86,6.52,2.59c1.86,1.76,3.31,4.34,3.35,6.9c0.02,2.32-0.53,4.21-2.01,6
		c-1.4,1.73-2.83,3.04-5,3.5l7.5,10.99h-7l-7.05-10.38c-0.28-0.39-0.73-0.61-1.21-0.61h-3.23L101,65L101,65z M101,48.49h8
		c2.21,0,4-1.79,4-4c0-2.21-1.79-4-4-4h-8V48.49z"/>
</g>
</svg>
