<svg width="638" height="100" viewBox="0 0 638 100" fill="none" xmlns="http://www.w3.org/2000/svg">
<g clip-path="url(#clip0_7_810)">
<mask id="mask0_7_810" style="mask-type:luminance" maskUnits="userSpaceOnUse" x="0" y="0" width="638" height="100">
<path d="M638 0H0V100H638V0Z" fill="white"/>
</mask>
<g mask="url(#mask0_7_810)">
<path d="M0 0V100H99.8583L0 0Z" fill="white"/>
<path d="M0 0V100H99.8583L0 0Z" fill="#4E778E"/>
<path d="M99.8583 0H0V100L99.8583 0Z" fill="#023D5E"/>
<path d="M445.726 18.2008C431.062 18.2008 418.185 30.0972 418.185 44.7818V77.2877H429.994V65.461H461.457V77.2877H473.267V44.7818C473.267 30.0972 460.39 18.2008 445.726 18.2008ZM461.457 53.6576H429.994V44.805C429.994 36.6494 437.582 30.0275 445.726 30.0275C453.87 30.0275 461.457 36.6494 461.457 44.805V53.6576Z" fill="#FF5722"/>
<path d="M608.975 18.2008C594.311 18.2008 581.434 30.0972 581.434 44.7818V77.2877H593.244V65.461H624.706V77.2877H636.516V44.7818C636.516 30.0972 623.639 18.2008 608.975 18.2008ZM624.706 53.6576H593.244V44.805C593.244 36.6494 600.831 30.0275 608.975 30.0275C617.119 30.0275 624.706 36.6494 624.706 44.805V53.6576Z" fill="#FF5722"/>
<path d="M325.748 18.2008C309.461 18.2008 296.235 31.4216 296.235 47.7558C296.235 64.0669 309.437 77.3109 325.748 77.3109C342.037 77.3109 355.262 64.0901 355.262 47.7558C355.262 31.4216 342.037 18.2008 325.748 18.2008ZM325.748 65.4611C315.981 65.4611 308.045 57.5146 308.045 47.7327C308.045 37.9507 315.981 30.0043 325.748 30.0043C335.517 30.0043 343.452 37.9507 343.452 47.7327C343.452 57.5378 335.517 65.4611 325.748 65.4611Z" fill="#023D5E"/>
<path d="M283.73 44.6205C285.192 42.0414 286.027 39.0905 286.027 35.9073C286.027 26.1253 278.092 18.179 268.324 18.179H245.122V77.2659H274.24C284.009 77.2659 291.943 69.3195 291.943 59.5375C291.921 53.2873 288.649 47.7805 283.73 44.6205ZM256.909 30.0056H268.324C271.572 30.0056 274.217 32.6544 274.217 35.9073C274.217 39.1602 271.572 41.8091 268.324 41.8091H256.909V30.0056ZM274.217 65.4624H256.909V53.6357H274.217C277.466 53.6357 280.111 56.2846 280.111 59.5375C280.111 62.7904 277.466 65.4624 274.217 65.4624Z" fill="#023D5E"/>
<path d="M208.714 18.2008C192.427 18.2008 179.201 31.4216 179.201 47.7558C179.201 64.0669 192.403 77.3109 208.714 77.3109C225.025 77.3109 238.227 64.0901 238.227 47.7558C238.227 31.4216 225.002 18.2008 208.714 18.2008ZM208.714 65.4611C198.947 65.4611 191.011 57.5146 191.011 47.7327C191.011 37.9507 198.947 30.0043 208.714 30.0043C218.482 30.0043 226.417 37.9507 226.417 47.7327C226.417 57.5378 218.482 65.4611 208.714 65.4611Z" fill="#023D5E"/>
<path d="M510.58 41.9471L510.65 41.8309H496.891C493.642 41.8309 490.997 39.1821 490.997 35.9292C490.997 32.6763 493.642 30.0275 496.891 30.0275H518.515L526.381 18.2008H496.868C487.1 18.2008 479.165 26.1472 479.165 35.9292C479.165 45.0838 486.078 52.612 494.965 53.5414L494.895 53.6576H508.654C511.903 53.6576 514.548 56.3064 514.548 59.5593C514.548 62.8122 511.903 65.461 508.654 65.461H487.03L479.165 77.2877H508.678C518.447 77.2877 526.381 69.3413 526.381 59.5593C526.381 50.4047 519.444 42.8765 510.58 41.9471Z" fill="#FF5722"/>
<path d="M546.029 18.2008C536.262 18.2008 528.327 26.1472 528.327 35.9292C528.327 45.0838 535.241 52.612 544.127 53.5414L544.057 53.6576H557.816C561.065 53.6576 563.71 56.3064 563.71 59.5593C563.71 62.8122 561.065 65.461 557.816 65.461H536.192L528.327 77.2877H557.839C567.608 77.2877 575.542 69.3413 575.542 59.5593C575.542 50.4047 568.629 42.8765 559.742 41.9471L559.812 41.8309H546.053C542.805 41.8309 540.16 39.1821 540.16 35.9292C540.16 32.6763 542.805 30.0275 546.053 30.0275H567.677L575.542 18.2008H546.029Z" fill="#FF5722"/>
<path d="M138.902 77.288H127.092V18.201H154.888C159.854 18.201 164.123 19.8972 167.719 23.3128C171.386 26.7749 174.239 31.8633 174.309 36.9054C174.355 41.4827 173.265 45.2002 170.364 48.732C167.603 52.1476 164.796 54.7266 160.526 55.6329L175.283 77.288H161.525L147.649 56.8411C147.093 56.0743 146.211 55.6329 145.259 55.6329H138.902V77.288ZM138.902 44.782H154.633C158.972 44.782 162.499 41.2503 162.499 36.9054C162.499 32.5604 158.972 29.0287 154.633 29.0287H138.902V44.782Z" fill="#023D5E"/>
<path d="M411.69 18.2008L387.559 43.922L412.292 77.2644H398.534L379.717 52.2634L374.938 57.9793V77.2413H363.128V18.2008H374.938V41.5056L396.214 18.2008H411.69Z" fill="#FF5722"/>
</g>
</g>
<defs>
<clipPath id="clip0_7_810">
<rect width="638" height="100" fill="white"/>
</clipPath>
</defs>
</svg>
